<svg xmlns="http://www.w3.org/2000/svg" width="192" height="192" viewBox="0 0 192 192" version="1.1">
	<path d="M 46.202 26.537 C 31.733 31.466, 18.036 39.457, 6.250 49.846 L 0 55.355 -0 104.070 L -0 152.785 6.212 158.536 C 16.778 168.318, 11.221 167.501, 67.104 167.496 L 116.500 167.492 124 164.599 C 128.125 163.008, 134.650 159.880, 138.500 157.648 C 146.467 153.029, 159.867 141.867, 164.878 135.674 C 168.760 130.876, 174.710 119.065, 175.580 114.427 C 176.317 110.499, 174.724 102.424, 173.270 102.718 C 172.677 102.838, 171.609 102.234, 170.897 101.376 C 169.818 100.076, 169.976 99.109, 171.843 95.589 C 173.972 91.576, 174.041 90.762, 173.210 79.432 C 172.262 66.504, 172.409 66.870, 163.478 55.191 C 160.339 51.086, 159.009 50.069, 157.172 50.371 C 155.660 50.619, 153.969 49.878, 152.348 48.257 C 150.353 46.262, 149.180 45.871, 146.488 46.308 C 144.306 46.662, 142.731 46.381, 142.005 45.506 C 140.780 44.030, 140.683 44.063, 130.108 49.502 L 124.716 52.275 122.936 49.915 C 121.957 48.618, 121.331 47.274, 121.544 46.929 C 121.757 46.585, 120.999 45.303, 119.860 44.080 L 117.789 41.857 116.183 44.150 L 114.577 46.443 113.997 43.971 C 113.239 40.735, 109.728 40.243, 106.807 42.965 C 105.165 44.495, 103.806 44.897, 101.778 44.451 C 99.835 44.024, 98.990 44.241, 98.967 45.171 C 98.850 49.821, 90.237 53.589, 89.070 49.500 C 88.695 48.185, 87.643 47.500, 86 47.500 C 84.190 47.500, 83.414 46.896, 83.189 45.311 C 82.886 43.187, 82.824 43.176, 81.037 44.963 C 80.025 45.975, 78.885 47.787, 78.503 48.990 C 77.550 51.993, 72.340 54.112, 69.307 52.730 C 67.194 51.768, 66.205 48.318, 66.956 44.528 C 67.061 43.993, 66.282 44.339, 65.224 45.297 C 63.587 46.779, 62.938 46.849, 60.855 45.769 C 59.510 45.071, 58.205 44.050, 57.955 43.500 C 57.373 42.221, 50.750 42.685, 46.884 44.276 L 43.911 45.500 46.932 49.601 C 48.594 51.857, 51.376 56.567, 53.113 60.069 C 55.766 65.416, 56.276 67.593, 56.299 73.675 C 56.318 78.594, 56.675 80.717, 57.413 80.297 C 58.011 79.956, 57.413 80.870, 56.086 82.328 C 53.784 84.855, 53.752 85.069, 55.401 86.890 C 57.459 89.164, 56.410 90.109, 53.181 88.889 C 51.442 88.233, 51.021 87.510, 51.498 86.007 C 51.943 84.603, 51.681 84, 50.626 84 C 48.557 84, 47.534 82.066, 48.887 80.713 C 49.499 80.101, 50 78.713, 50 77.629 C 50 76.545, 50.728 74.853, 51.619 73.869 C 54.050 71.182, 52.691 66.312, 47.143 57.833 C 40.398 47.524, 39.867 47.180, 34.637 49.721 C 32.302 50.855, 27.379 54.064, 23.696 56.852 C 20.013 59.639, 17 61.661, 17 61.345 C 17 61.029, 20.487 57.186, 24.750 52.804 C 31.715 45.646, 32.196 44.910, 29.500 45.546 C 27.850 45.934, 24.250 47.610, 21.500 49.269 C 18.750 50.928, 15.375 52.941, 14 53.743 C 12.625 54.545, 14.042 52.793, 17.148 49.850 C 27.584 39.965, 43.612 32, 62.059 27.534 C 67.677 26.173, 72.549 24.765, 72.887 24.405 C 73.570 23.675, 62.551 24.851, 60.179 25.761 C 59.197 26.138, 58.924 25.932, 59.395 25.170 C 60.628 23.175, 54.082 23.853, 46.202 26.537 M 111 25 C 111.825 25.533, 113.462 25.976, 114.638 25.985 C 118.706 26.014, 134.533 31.083, 142.759 34.992 C 166.321 46.188, 181.319 62.431, 187.597 83.552 C 189.752 90.802, 189.997 105.245, 188.097 113 C 184.644 127.096, 175.167 141.632, 163.158 151.250 C 157.968 155.407, 157.381 154.546, 162.137 149.750 C 166.916 144.931, 172 137.365, 172 135.073 C 172 134.229, 168.730 136.904, 164.732 141.019 C 153.729 152.345, 148.678 155.762, 131.500 163.495 C 129.850 164.238, 127.242 165.160, 125.703 165.543 C 124.165 165.926, 123.098 166.431, 123.332 166.665 C 123.565 166.899, 139.111 167.344, 157.878 167.654 L 192 168.219 191.985 150.359 C 191.974 137.318, 191.678 132.905, 190.890 134 C 190.036 135.188, 189.976 135.084, 190.605 133.500 C 191.042 132.400, 191.526 128.350, 191.682 124.500 C 191.990 116.868, 192.241 116.672, 187.332 127.902 C 186.034 130.874, 184.721 133.055, 184.416 132.749 C 184.110 132.444, 184.784 130.383, 185.913 128.170 C 187.042 125.957, 188.927 120.645, 190.101 116.365 C 193.147 105.262, 192.466 89.640, 188.479 79.136 C 180.340 57.694, 161.259 39.913, 136.124 30.348 C 131.381 28.543, 128.052 27.051, 128.727 27.033 C 129.402 27.015, 132.793 28.068, 136.263 29.374 C 161.321 38.806, 179.503 54.932, 188.618 75.809 L 191.976 83.500 191.988 78.088 C 192.002 71.784, 189.760 67.311, 181.263 56.688 C 171.263 44.187, 153.422 32.118, 136.656 26.511 C 132.342 25.068, 127.392 24.048, 125.656 24.245 L 122.500 24.603 125 25.738 C 128.384 27.275, 127.659 27.246, 119.500 25.517 C 110.974 23.711, 108.802 23.579, 111 25 M 143.550 24.726 L 137.599 25.112 147.760 29.980 C 159.107 35.418, 164.267 38.693, 174.500 46.952 C 178.633 50.289, 182.222 52.448, 183.262 52.226 C 184.231 52.018, 184.773 51.441, 184.465 50.944 C 184.158 50.446, 185.727 49.747, 187.953 49.392 L 192 48.744 192 36.872 L 192 25 172.750 24.986 C 162.162 24.979, 152.600 24.831, 151.500 24.657 C 150.400 24.483, 146.822 24.514, 143.550 24.726 M 137.211 48.538 C 136.150 49.740, 136.176 50, 137.354 50 C 138.141 50, 139.045 49.325, 139.362 48.500 C 140.090 46.603, 138.899 46.624, 137.211 48.538 M 104.433 52.743 L 102.635 55.486 105.013 53.907 C 107.554 52.220, 108.796 50, 107.198 50 C 106.666 50, 105.421 51.234, 104.433 52.743 M 40.572 53.673 C 40.221 54.587, 40.339 55.739, 40.833 56.233 C 41.365 56.765, 41.953 56.289, 42.272 55.067 C 42.930 52.551, 41.464 51.348, 40.572 53.673 M 97.536 56.942 C 97.171 57.532, 97.689 58.316, 98.687 58.684 C 99.684 59.053, 100.831 59.837, 101.235 60.427 C 101.754 61.185, 101.974 61.178, 101.985 60.405 C 102.010 58.609, 98.294 55.716, 97.536 56.942 M 32.250 58.845 C 31.267 59.453, 31.306 60.032, 32.433 61.559 C 33.585 63.121, 34.115 63.254, 35.140 62.243 C 36.172 61.225, 36.137 60.709, 34.957 59.529 C 34.132 58.704, 32.958 58.408, 32.250 58.845 M 80.555 61.911 C 80.245 62.413, 80.762 64.166, 81.704 65.807 C 83.084 68.212, 84.055 68.772, 86.708 68.697 C 90.703 68.584, 90.839 67.485, 87.313 63.805 C 84.640 61.015, 81.630 60.172, 80.555 61.911 M 119.303 70.930 C 122.976 75.331, 123.915 78.316, 122 79.500 C 121.450 79.840, 121 80.922, 121 81.904 C 121 82.886, 120.100 84.505, 119 85.500 C 116.105 88.120, 116.544 89.529, 119.626 87.510 C 122.847 85.399, 124.078 86.746, 123.301 91.532 C 122.967 93.588, 123.374 95.642, 124.436 97.262 C 125.514 98.907, 125.877 100.785, 125.477 102.644 C 124.903 105.317, 124.961 105.380, 126.374 103.638 C 127.204 102.614, 128.194 99.297, 128.572 96.267 C 129.748 86.859, 125.408 75.200, 118.422 69 C 116.298 67.114, 116.514 67.589, 119.303 70.930 M 34 69.500 C 34 70.325, 34.450 71, 35 71 C 35.550 71, 36 70.325, 36 69.500 C 36 68.675, 35.550 68, 35 68 C 34.450 68, 34 68.675, 34 69.500 M 25.255 73.842 C 24.613 74.239, 24.452 75.113, 24.891 75.824 C 25.512 76.829, 25.929 76.790, 26.887 75.636 C 28.230 74.018, 27.057 72.729, 25.255 73.842 M 110.540 74.347 C 109.208 75.321, 109.030 75.900, 109.896 76.436 C 111.583 77.478, 114 76.357, 114 74.531 C 114 72.644, 112.946 72.588, 110.540 74.347 M 57.015 76.250 C 57.007 77.763, 57.450 79, 58 79 C 59.264 79, 59.264 76.957, 58 75 C 57.245 73.831, 57.027 74.107, 57.015 76.250 M 27.600 77.154 C 25.960 79.069, 25.945 79.235, 27.460 78.654 C 28.397 78.294, 29.529 78, 29.975 78 C 30.421 78, 31.045 77.325, 31.362 76.500 C 32.225 74.251, 29.712 74.688, 27.600 77.154 M 30.540 80.740 C 27.551 83.964, 27.358 85, 29.750 85 C 30.712 85, 32.757 83.425, 34.293 81.500 C 36.876 78.262, 36.935 78, 35.083 78 C 33.982 78, 31.938 79.233, 30.540 80.740 M 86.667 80.667 C 85.298 82.036, 86.078 82.708, 88.500 82.245 C 89.875 81.982, 91 81.369, 91 80.883 C 91 79.854, 87.647 79.687, 86.667 80.667 M 57.543 89.931 C 57.226 90.443, 57.378 91.115, 57.879 91.425 C 58.380 91.735, 59.048 91.316, 59.364 90.494 C 59.986 88.874, 58.483 88.409, 57.543 89.931 M 107.608 93.496 C 106.568 94.283, 105.251 95.083, 104.681 95.273 C 104.099 95.467, 103.998 96.187, 104.449 96.917 C 105.050 97.890, 105.846 97.524, 107.626 95.452 C 110.878 91.667, 110.872 91.025, 107.608 93.496 M 50.510 96.016 C 50.856 96.575, 51.557 96.774, 52.069 96.457 C 53.456 95.600, 53.198 95, 51.441 95 C 50.584 95, 50.165 95.457, 50.510 96.016 M 110.667 95.667 C 109.307 97.026, 110.072 98, 112.500 98 C 115.293 98, 115.853 96.541, 113.418 95.607 C 111.460 94.855, 111.478 94.855, 110.667 95.667 M 84 98.500 C 84 99.868, 87.357 104, 88.469 104 C 89.359 104, 87.647 100.647, 85.826 98.826 C 84.348 97.348, 84 97.286, 84 98.500 M 13.531 103.293 C 13.103 104.279, 13.034 105.367, 13.376 105.710 C 14.392 106.725, 15.211 105.299, 14.743 103.328 C 14.329 101.581, 14.275 101.580, 13.531 103.293 M 70.361 107.775 C 70.787 108.465, 69.070 108.635, 65.215 108.286 C 59.696 107.785, 59.374 107.884, 58.215 110.428 C 56.548 114.086, 56.631 114.506, 59.644 117.698 L 62.288 120.500 61.625 117.750 C 61.059 115.404, 61.275 115, 63.088 115 C 64.663 115, 65.048 115.433, 64.573 116.670 C 63.643 119.094, 66.124 120.198, 68.227 118.294 C 69.202 117.412, 70 116.133, 70 115.452 C 70 114.771, 70.647 113.966, 71.438 113.662 C 73.199 112.986, 72.852 107.784, 71.004 107.168 C 70.299 106.933, 70.009 107.206, 70.361 107.775 M 100 118.059 C 100 119.191, 100.430 119.852, 100.956 119.527 C 101.482 119.202, 101.659 118.275, 101.349 117.468 C 100.556 115.401, 100 115.644, 100 118.059 M 69.250 120.989 C 66.019 122.959, 64.862 125.235, 67.250 124.925 C 70.688 124.479, 73 125.133, 73 126.551 C 73 127.745, 73.790 127.499, 76.433 125.484 C 79.825 122.896, 79.843 122.843, 77.933 120.933 C 75.483 118.483, 73.337 118.497, 69.250 120.989 M 61.158 120.882 C 60.181 121.501, 60.531 121.868, 62.448 122.235 C 64.047 122.540, 64.941 122.323, 64.727 121.681 C 64.237 120.210, 62.746 119.877, 61.158 120.882 M 59.636 127.506 C 59.321 128.328, 59.472 129, 59.972 129 C 61.328 129, 62.170 127.223, 61.121 126.575 C 60.620 126.265, 59.952 126.684, 59.636 127.506 M 38.074 129.589 C 38.820 130.488, 40.346 131.595, 41.465 132.048 C 43.424 132.842, 43.416 132.876, 41.250 132.937 C 37.328 133.047, 38.825 134.665, 43 134.829 C 45.200 134.915, 47 134.583, 47 134.092 C 47 133.179, 42.019 129.961, 38.609 128.670 C 36.951 128.043, 36.885 128.156, 38.074 129.589 M 47.500 130 C 47.840 130.550, 48.568 131, 49.118 131 C 49.668 131, 49.840 130.550, 49.500 130 C 49.160 129.450, 48.432 129, 47.882 129 C 47.332 129, 47.160 129.450, 47.500 130 M 55.710 132 C 55.998 133.100, 56.406 134, 56.617 134 C 56.827 134, 57 133.100, 57 132 C 57 130.900, 56.592 130, 56.094 130 C 55.595 130, 55.423 130.900, 55.710 132 M 63 132 C 63 132.550, 63.675 133, 64.500 133 C 65.325 133, 66 132.550, 66 132 C 66 131.450, 65.325 131, 64.500 131 C 63.675 131, 63 131.450, 63 132 M 102 135 C 102 136.253, 103.061 136.253, 105 135 C 106.213 134.216, 106.069 134.028, 104.250 134.015 C 103.013 134.007, 102 134.450, 102 135 M 146 136.129 C 144.075 137.296, 140.839 139.744, 138.810 141.569 C 136.780 143.394, 133.743 145.599, 132.060 146.469 C 128.661 148.227, 128.030 150, 130.804 150 C 134.099 150, 142.423 145.043, 148.458 139.486 C 153.751 134.612, 154.141 134, 151.958 134.004 C 150.606 134.006, 147.925 134.962, 146 136.129 M 64 136.250 C 64 137.148, 64.480 138.179, 65.067 138.541 C 66.782 139.601, 66.950 138.652, 65.418 136.557 C 64.232 134.935, 64 134.885, 64 136.250 M 108 136.819 C 108 138.027, 109.897 139.436, 110.591 138.743 C 110.842 138.491, 110.362 137.716, 109.524 137.020 C 108.574 136.231, 108 136.155, 108 136.819 M 102 139 C 102 140.100, 102.395 141, 102.878 141 C 104.189 141, 106.082 138.415, 105.325 137.658 C 103.956 136.289, 102 137.078, 102 139 M 113.174 140.314 C 110.963 142.668, 110.237 146, 111.935 146 C 113.754 146, 118.469 143.859, 119.179 142.710 C 119.862 141.605, 117.444 138, 116.019 138 C 115.650 138, 114.370 139.042, 113.174 140.314 M 38.249 143.241 C 38.578 145.484, 38.228 146.848, 37.112 147.673 C 35.875 148.588, 35.773 149.143, 36.675 150.058 C 38.350 151.757, 42.540 151.531, 45.517 149.581 C 48.489 147.634, 47.944 145.425, 44.894 147.057 C 43.084 148.025, 43.019 147.942, 44.160 146.116 C 45.210 144.434, 45.112 143.782, 43.551 142.056 C 42.527 140.925, 40.809 140, 39.732 140 C 38.092 140, 37.850 140.528, 38.249 143.241 M 28 142.500 C 27.282 143.365, 27.185 144, 27.771 144 C 28.329 144, 29.045 143.325, 29.362 142.500 C 29.678 141.675, 29.781 141, 29.591 141 C 29.401 141, 28.685 141.675, 28 142.500 M 32.603 142.833 C 32.320 143.292, 32.743 143.667, 33.544 143.667 C 34.345 143.667, 35 143.292, 35 142.833 C 35 142.375, 34.577 142, 34.059 142 C 33.541 142, 32.886 142.375, 32.603 142.833 M 102.500 143 C 102.160 143.550, 102.359 144, 102.941 144 C 103.523 144, 104 143.550, 104 143 C 104 142.450, 103.802 142, 103.559 142 C 103.316 142, 102.840 142.450, 102.500 143 M 62 148.941 C 62 150.931, 63.304 152.363, 64.252 151.415 C 65.036 150.631, 63.911 147, 62.883 147 C 62.398 147, 62 147.873, 62 148.941 M 58.712 149.622 C 57.544 150.790, 57.902 152, 59.417 152 C 60.196 152, 61.034 152.563, 61.280 153.250 C 61.525 153.938, 61.982 154.268, 62.295 153.985 C 62.607 153.702, 62.089 152.444, 61.143 151.190 C 60.197 149.936, 59.103 149.230, 58.712 149.622 M 62.667 157.667 C 61.711 158.622, 61.845 160, 62.893 160 C 63.384 160, 64.045 159.325, 64.362 158.500 C 64.947 156.976, 63.881 156.452, 62.667 157.667" stroke="none" fill="black" fill-rule="evenodd"/>
</svg>