<svg xmlns="http://www.w3.org/2000/svg" width="512" height="512" viewBox="0 0 512 512" version="1.1">
	<path d="M 138.766 66.082 C 134.178 67.163, 114.607 73.704, 110.500 75.527 C 108.850 76.260, 103.949 78.310, 99.608 80.082 C 68.254 92.886, 32.776 116.998, 6.750 143.193 L -0 149.987 -0 278.924 L 0 407.862 8.750 416.301 C 13.563 420.943, 19.300 426.261, 21.500 428.119 C 23.700 429.977, 25.725 431.757, 26 432.075 C 26.275 432.393, 30.795 435.867, 36.045 439.795 C 44.695 446.266, 46.256 447.050, 52.676 448.151 C 58.421 449.136, 61.129 449.108, 67 448 C 72.714 446.922, 75.637 446.873, 80.870 447.770 C 85.241 448.518, 88.863 448.588, 91.500 447.974 C 96.054 446.914, 181.070 446.637, 212 447.581 C 223.275 447.926, 252.750 447.777, 277.500 447.251 C 304.332 446.681, 333.804 446.648, 350.500 447.169 C 365.900 447.650, 380.525 447.956, 383 447.848 C 387.322 447.661, 391.199 447.681, 406.500 447.966 C 410.350 448.038, 435.589 448.122, 462.586 448.154 L 511.673 448.210 512.336 417.942 C 512.701 401.295, 512.900 333.635, 512.778 267.587 C 512.656 201.539, 512.318 158.063, 512.028 170.973 L 511.500 194.446 509.540 189.973 C 506.889 183.925, 495.738 165.814, 490.357 158.817 C 470.270 132.699, 443.110 109.441, 413.500 93.002 C 410.200 91.170, 406.150 88.860, 404.500 87.870 C 400.013 85.176, 391.527 81.207, 382 77.346 C 377.325 75.451, 372.600 73.506, 371.500 73.023 C 361.895 68.808, 348.730 65.624, 339.121 65.192 C 330.572 64.809, 328.823 64.971, 329.201 66.113 C 329.775 67.845, 332.814 69.301, 340.500 71.526 C 349.323 74.080, 355.272 76.058, 357.236 77.089 C 358.191 77.590, 359.550 78, 360.255 78 C 361.533 78, 372.475 82.323, 380.968 86.184 C 383.426 87.302, 386.576 88.688, 387.968 89.265 C 390.049 90.128, 390.185 90.389, 388.735 90.734 C 387.765 90.964, 383.940 89.729, 380.235 87.989 C 373.246 84.706, 372.463 84.374, 365 81.517 C 362.525 80.570, 359.810 79.448, 358.967 79.024 C 358.124 78.601, 355.992 77.937, 354.229 77.550 C 352.466 77.163, 350.766 76.431, 350.452 75.923 C 350.139 75.415, 348.754 75, 347.375 75 C 345.997 75, 343.886 74.467, 342.684 73.816 C 341.483 73.164, 338.700 72.299, 336.500 71.894 C 334.300 71.488, 329.575 70.443, 326 69.571 C 319.313 67.940, 301.249 65.088, 297.250 65.032 C 291.394 64.949, 297.445 68.409, 305 69.463 C 321.343 71.742, 356.976 82.439, 373.705 90.089 C 423.577 112.892, 458.305 141.591, 481.044 178.794 C 507.786 222.546, 513.198 270.527, 496.891 319.295 C 493.061 330.750, 477.504 360.708, 474.801 361.833 C 474.360 362.017, 474 362.756, 474 363.476 C 474 364.197, 473.344 365.038, 472.543 365.345 C 471.741 365.653, 469.869 367.838, 468.382 370.202 C 466.895 372.566, 463.838 376.483, 461.589 378.906 C 449.081 392.385, 448 393.150, 448 388.530 C 448 384.634, 454.377 374.091, 456.769 374.031 C 457.631 374.010, 457.830 373.172, 457.390 371.420 C 456.929 369.583, 457.383 367.973, 458.965 365.833 C 460.188 364.180, 460.981 362.036, 460.729 361.070 C 460.464 360.057, 461.059 358.820, 462.135 358.148 C 464.264 356.818, 464.669 353, 462.680 353 C 461.955 353, 460.444 354.012, 459.324 355.250 C 458.204 356.488, 456.042 358.400, 454.519 359.500 C 452.997 360.600, 451.461 361.725, 451.105 362 C 450.750 362.275, 449.916 363.738, 449.251 365.250 C 448.587 366.763, 447.471 368.021, 446.771 368.046 C 446.072 368.072, 444.150 369.853, 442.500 372.005 C 440.850 374.157, 438.735 376.184, 437.800 376.510 C 436.864 376.836, 435.103 378.768, 433.885 380.802 C 431.384 384.979, 427.576 388.840, 421 393.867 C 418.525 395.759, 416.140 397.912, 415.700 398.653 C 415.260 399.394, 414.238 400, 413.429 400 C 412.619 400, 411.437 401.142, 410.800 402.539 C 410.164 403.935, 409.082 404.862, 408.395 404.598 C 407.708 404.335, 406.598 404.779, 405.928 405.586 C 404.163 407.713, 396.117 413, 394.646 413 C 392.976 413, 384.194 418.550, 380.773 421.766 C 379.273 423.177, 377.248 424.393, 376.273 424.469 C 375.298 424.544, 373.351 425.363, 371.948 426.289 C 370.544 427.214, 367.947 428.261, 366.177 428.615 C 364.407 428.969, 362.716 429.650, 362.420 430.129 C 361.698 431.297, 358 431.246, 358 430.068 C 358 428.918, 362.765 425.490, 365.574 424.620 C 366.714 424.266, 368.514 423.191, 369.574 422.231 C 372.344 419.719, 377 416.836, 377 417.632 C 377 418.005, 377.787 417.673, 378.750 416.894 C 381.129 414.969, 387 411.766, 387 412.394 C 387 412.673, 388.463 411.447, 390.250 409.671 C 392.038 407.894, 395.300 405.127, 397.500 403.521 C 399.700 401.916, 402.414 399.567, 403.532 398.301 C 404.649 397.035, 406.082 396, 406.714 396 C 407.347 396, 408.151 395.100, 408.500 394 C 408.849 392.900, 409.681 392, 410.349 392 C 411.016 392, 414.249 389.275, 417.531 385.944 C 420.814 382.613, 425.075 378.914, 427 377.725 C 430.992 375.258, 436.344 370.221, 437.332 368 C 437.699 367.175, 439.569 364.475, 441.487 362 C 447.079 354.784, 452.777 346.279, 453.458 344.134 C 453.804 343.042, 455.195 340.203, 456.548 337.825 C 457.902 335.446, 459.936 331.475, 461.069 329 C 462.202 326.525, 463.548 323.600, 464.059 322.500 C 464.571 321.400, 466.163 316.900, 467.596 312.500 C 470.333 304.102, 470.362 302.544, 468.151 283.322 C 467.414 276.918, 465.101 273, 462.057 273 C 461.159 273, 458.893 271.721, 457.021 270.159 L 453.617 267.317 455.841 262.147 C 457.065 259.303, 459.463 254.620, 461.171 251.738 C 465.371 244.655, 465.920 236.792, 463.088 224.261 C 460.741 213.876, 460.422 203.417, 462.191 194.853 C 463.295 189.508, 463.207 188.700, 460.987 183.793 C 459.670 180.882, 457.109 176.415, 455.296 173.866 C 453.483 171.317, 452 168.827, 452 168.332 C 452 167.837, 449.188 164.010, 445.750 159.827 C 442.313 155.644, 436.818 148.755, 433.539 144.518 C 430.261 140.280, 426.487 135.955, 425.154 134.907 C 422.253 132.625, 418.437 132.418, 417.638 134.500 C 417.322 135.325, 415.959 136, 414.609 136 C 412.702 136, 411.903 135.238, 411.027 132.582 C 409.056 126.610, 401.070 123.400, 390.328 124.262 C 383.901 124.778, 383.369 124.653, 380.237 121.903 C 378.418 120.306, 376.260 119, 375.441 119 C 374.622 119, 371.662 120.575, 368.864 122.500 C 365.715 124.666, 362.586 126, 360.654 126 C 357.683 126, 346.871 130.664, 346.167 132.250 C 345.983 132.662, 345.169 133, 344.358 133 C 343.546 133, 343.104 132.641, 343.375 132.202 C 344.251 130.785, 342.250 128.690, 340.618 129.316 C 339.466 129.758, 339.194 130.721, 339.620 132.850 C 340.153 135.513, 339.881 135.884, 336.618 136.961 C 331.984 138.490, 329.367 137.603, 328.522 134.214 C 328.149 132.721, 327.134 130.713, 326.267 129.750 C 324.601 127.901, 324.757 127.798, 329.500 127.615 C 334.108 127.438, 333.196 124.856, 327.500 121.947 C 324.750 120.543, 321.072 117.956, 319.327 116.197 C 315.599 112.441, 313.518 112.164, 311.888 115.209 C 310.453 117.890, 306.959 120.921, 305.250 120.967 C 304.463 120.988, 304 119.589, 304 117.191 C 304 113.107, 302.424 110.254, 300 109.951 C 295.255 109.357, 289 110.117, 289 111.288 C 289 112.847, 278.428 120.135, 276.133 120.159 C 275.235 120.168, 272.558 119.453, 270.184 118.570 C 265.238 116.730, 263.759 117.191, 264.546 120.327 C 264.949 121.931, 264.247 123.343, 261.968 125.515 C 260.245 127.157, 258.221 129.963, 257.469 131.750 C 256.369 134.366, 255.530 135, 253.173 135 C 251.563 135, 249.646 135.722, 248.914 136.604 C 248.181 137.486, 246.444 138.641, 245.053 139.170 C 241.487 140.526, 239 137.278, 239 131.264 L 239 126.750 235.750 127.545 C 226.818 129.731, 223.882 128.203, 221.733 120.250 C 220.473 115.583, 219.315 114.778, 218.820 118.223 C 218.625 119.574, 217 121.286, 214.674 122.587 C 212.570 123.765, 210.879 125.014, 210.917 125.362 C 210.955 125.710, 210.247 127.908, 209.343 130.247 C 206.936 136.479, 203.338 139.846, 197.169 141.639 C 192.335 143.045, 191.408 143.050, 188.141 141.687 C 186.138 140.853, 183.706 139.918, 182.735 139.610 C 181.764 139.303, 180.524 137.879, 179.980 136.447 C 178.701 133.083, 178.352 120.206, 179.456 117.106 L 180.309 114.712 177.154 117.044 C 175.419 118.327, 174 119.888, 174 120.514 C 174 121.139, 172.926 122.661, 171.613 123.894 L 169.225 126.137 165.731 123.068 C 163.809 121.381, 161.534 120, 160.677 120 C 158.215 120, 157.689 118.124, 159.414 115.491 C 160.286 114.160, 161 112.850, 161 112.580 C 161 111.180, 153.657 111.120, 147.500 112.471 C 143.650 113.316, 137.260 114.694, 133.300 115.534 C 123.473 117.617, 119 119.601, 119 121.875 C 119 122.891, 120.822 126.147, 123.049 129.111 C 135.579 145.788, 147.018 167.808, 148.966 179 C 149.684 183.125, 150.713 187.471, 151.254 188.657 C 151.956 190.198, 151.794 192.055, 150.688 195.157 C 148.334 201.757, 147.865 207.185, 149.393 210.131 C 150.274 211.829, 150.420 213.285, 149.818 214.360 C 149.065 215.707, 149.398 216, 151.683 216 C 154.445 216, 154.431 216.033, 149.798 220.472 C 142.649 227.322, 142.513 227.891, 147.084 231.804 C 152.445 236.393, 152.132 241.803, 146.655 239.220 C 145.470 238.661, 142.813 237.462, 140.750 236.555 C 136.622 234.740, 136.272 233.625, 138.494 229.364 C 140.774 224.992, 140.406 224, 136.500 224 C 133.013 224, 129 221.242, 129 218.844 C 129 218.209, 130.186 216.134, 131.635 214.234 C 133.266 212.096, 134.463 209.009, 134.776 206.139 C 135.148 202.723, 136.167 200.511, 138.641 197.747 C 143.757 192.031, 143.357 184.979, 137.180 172 C 133.254 163.752, 118.920 142.260, 113.119 135.922 C 105.983 128.127, 103.962 127.178, 99.234 129.399 C 92.105 132.749, 74.467 143.146, 68.500 147.515 C 65.200 149.932, 60.813 152.838, 58.750 153.975 C 56.687 155.111, 55 156.508, 55 157.079 C 55 157.651, 54.549 157.839, 53.997 157.498 C 53.348 157.097, 53.332 156.249, 53.950 155.093 C 55.238 152.688, 73.748 133.967, 82.750 125.966 C 93.366 116.531, 92.610 115.351, 79.033 120.163 C 73.001 122.301, 65.463 125.775, 62.283 127.884 C 59.102 129.992, 54.563 132.703, 52.196 133.907 C 49.829 135.111, 45.857 137.649, 43.369 139.548 C 40.882 141.447, 38.244 143, 37.507 143 C 36.770 143, 35.966 143.563, 35.720 144.250 C 35.475 144.938, 34.950 145.200, 34.554 144.834 C 32.808 143.218, 45.250 132.321, 65.706 117.550 C 73.464 111.948, 87.691 103, 88.839 103 C 89.313 103, 91.564 101.650, 93.841 100 C 96.119 98.350, 98.577 97, 99.304 97 C 100.030 97, 102.396 96.146, 104.562 95.102 C 116.841 89.184, 137.317 81.514, 151 77.707 C 165.376 73.707, 179.737 70.277, 185.255 69.524 C 190.403 68.822, 195.368 66.701, 194.318 65.652 C 192.842 64.175, 184.320 64.959, 161.250 68.693 C 159.220 69.021, 158 68.802, 158 68.109 C 158 67.499, 158.450 67, 159 67 C 159.550 67, 160 66.550, 160 66 C 160 64.773, 144.057 64.834, 138.766 66.082 M 378.329 66.920 C 369.689 67.466, 364.084 69, 370.726 69 C 372.524 69, 374.024 69.619, 374.362 70.500 C 374.678 71.325, 375.669 72, 376.564 72 C 377.459 72, 379.386 72.651, 380.846 73.447 C 382.306 74.242, 389.800 77.905, 397.500 81.586 C 405.200 85.267, 414.999 90.354, 419.277 92.890 C 423.554 95.425, 427.829 97.955, 428.777 98.511 C 442.028 106.282, 463.170 122.667, 478.310 136.898 C 488.829 146.787, 493.637 150.424, 491.334 146.750 C 489.477 143.788, 489.989 141.326, 492.738 139.987 C 495.987 138.406, 496.377 138.289, 498.981 138.125 C 500.202 138.048, 501.202 137.044, 501.587 135.508 C 502.107 133.436, 502.635 133.121, 504.714 133.643 C 506.320 134.046, 507.556 133.775, 508.168 132.885 C 508.809 131.954, 508.904 132.597, 508.459 134.852 L 507.796 138.204 509.898 136.102 C 511.951 134.049, 512 133.215, 512 100.026 L 512 66.053 449.750 66.196 C 415.512 66.275, 383.373 66.601, 378.329 66.920 M 148.750 71.662 C 149.438 71.940, 150.563 71.940, 151.250 71.662 C 151.938 71.385, 151.375 71.158, 150 71.158 C 148.625 71.158, 148.063 71.385, 148.750 71.662 M 140.750 73.662 C 141.438 73.940, 142.563 73.940, 143.250 73.662 C 143.938 73.385, 143.375 73.158, 142 73.158 C 140.625 73.158, 140.063 73.385, 140.750 73.662 M 131.750 76.662 C 132.438 76.940, 133.563 76.940, 134.250 76.662 C 134.938 76.385, 134.375 76.158, 133 76.158 C 131.625 76.158, 131.063 76.385, 131.750 76.662 M 123.813 79.683 C 124.534 79.972, 125.397 79.936, 125.729 79.604 C 126.061 79.272, 125.471 79.036, 124.417 79.079 C 123.252 79.127, 123.015 79.364, 123.813 79.683 M 103.813 87.683 C 104.534 87.972, 105.397 87.936, 105.729 87.604 C 106.061 87.272, 105.471 87.036, 104.417 87.079 C 103.252 87.127, 103.015 87.364, 103.813 87.683 M 92.813 92.683 C 93.534 92.972, 94.397 92.936, 94.729 92.604 C 95.061 92.272, 94.471 92.036, 93.417 92.079 C 92.252 92.127, 92.015 92.364, 92.813 92.683 M 396.300 95.503 C 399.490 97.426, 402.307 99, 402.561 99 C 403.483 99, 421.509 110.401, 421.833 111.189 C 422.017 111.635, 422.630 112, 423.195 112 C 423.761 112, 429.003 115.713, 434.845 120.250 C 446.810 129.544, 464.415 146.762, 471.613 156.208 C 474.249 159.669, 476.708 162.725, 477.076 163 C 478.715 164.226, 489.882 182.336, 494.033 190.500 C 501.673 205.530, 509.062 226.478, 510.962 238.500 C 512.863 250.523, 511.914 297.425, 509.606 305.500 C 508.662 308.800, 507.213 313.975, 506.386 317 C 503.133 328.887, 493.734 350.640, 487.275 361.230 C 486.024 363.282, 485.002 365.307, 485.005 365.730 C 485.011 366.735, 489.917 360.753, 489.964 359.683 C 489.984 359.234, 491.070 357.434, 492.379 355.683 C 493.687 353.932, 496.883 348, 499.482 342.500 C 505.578 329.598, 505.559 329.644, 508.044 322 C 509.207 318.425, 510.554 315.091, 511.039 314.590 C 511.547 314.065, 511.932 333.472, 511.948 360.495 C 511.963 386.243, 512.206 407.540, 512.488 407.821 C 512.770 408.103, 512.896 349.646, 512.768 277.917 C 512.641 206.188, 512.292 164.375, 511.994 185 C 511.681 206.640, 511.100 221.568, 510.621 220.297 C 505.243 206.020, 498.495 190.683, 494.138 182.828 C 475.646 149.496, 440.379 116.476, 401.271 95.879 C 392.098 91.048, 388.455 90.772, 396.300 95.503 M 273.500 102 C 273.160 102.550, 273.359 103, 273.941 103 C 274.523 103, 275 102.550, 275 102 C 275 101.450, 274.802 101, 274.559 101 C 274.316 101, 273.840 101.450, 273.500 102 M 261.415 107.137 C 261.022 107.773, 261.762 109.066, 263.091 110.069 C 266.038 112.291, 266.409 111.992, 264.877 108.629 C 263.585 105.793, 262.527 105.338, 261.415 107.137 M 368.667 126.667 C 367.679 127.654, 367.857 133, 368.878 133 C 370.079 133, 371.616 130.953, 372.445 128.250 C 372.993 126.464, 372.743 126, 371.234 126 C 370.189 126, 369.033 126.300, 368.667 126.667 M 283.061 136.605 C 280.932 138.848, 278 143.488, 278 144.614 C 278 144.826, 278.894 145, 279.987 145 C 281.212 145, 282.924 143.496, 284.447 141.084 C 285.807 138.930, 287.395 136.874, 287.976 136.515 C 289.250 135.727, 288.358 133.993, 286.691 134.017 C 286.036 134.027, 284.402 135.191, 283.061 136.605 M 109.099 143.557 C 107.944 145.514, 107 147.601, 107 148.197 C 107 149.262, 109.897 151.906, 111.131 151.968 C 112.152 152.020, 114.048 143.289, 113.389 141.572 C 112.467 139.169, 111.396 139.664, 109.099 143.557 M 311 143.573 C 311 144.505, 311.680 145.015, 312.667 144.823 C 315.176 144.337, 315.520 142, 313.083 142 C 311.855 142, 311 142.646, 311 143.573 M 261.384 152.442 C 260.198 155.532, 261.463 157.495, 264.848 157.820 C 267.926 158.116, 268.123 157.964, 267.444 155.824 C 266.728 153.567, 264.291 151.096, 262.719 151.032 C 262.289 151.014, 261.688 151.649, 261.384 152.442 M 86.750 157.226 C 85.237 157.743, 84 158.702, 84 159.355 C 84 161.072, 89.919 168, 91.385 168 C 92.631 168, 97.007 162.765, 96.992 161.290 C 96.988 160.856, 95.301 159.552, 93.242 158.393 C 90.304 156.738, 88.909 156.487, 86.750 157.226 M 270 159.500 C 270 160.325, 270.450 161, 271 161 C 271.550 161, 272 160.325, 272 159.500 C 272 158.675, 271.550 158, 271 158 C 270.450 158, 270 158.675, 270 159.500 M 48.583 160.643 C 48.237 161.547, 48.159 162.492, 48.410 162.743 C 49.205 163.538, 51 161.942, 51 160.441 C 51 158.479, 49.361 158.617, 48.583 160.643 M 220 162.709 C 214.608 164.692, 213.619 169.323, 217.500 174.411 C 218.875 176.214, 220 178.148, 220 178.710 C 220 179.271, 220.932 180.915, 222.071 182.363 C 223.816 184.581, 224.464 184.822, 226.197 183.894 C 227.489 183.203, 230.583 183.044, 234.525 183.466 C 238.205 183.860, 241.041 183.743, 241.387 183.184 C 242.952 180.650, 239.374 175.626, 231.274 168.985 C 226.588 165.143, 222.472 162.036, 222.127 162.079 C 221.782 162.122, 220.825 162.406, 220 162.709 M 92.200 183.200 C 91.540 183.860, 91 185.194, 91 186.165 C 91 188.124, 94.490 190.434, 96.021 189.487 C 97.620 188.499, 97.163 183.276, 95.418 182.607 C 93.404 181.834, 93.602 181.798, 92.200 183.200 M 317.128 187.750 C 317.882 188.713, 318.976 189.950, 319.557 190.500 C 320.963 191.830, 326.079 198.578, 328.177 201.869 C 330.385 205.333, 330.626 212.454, 328.508 211.641 C 326.385 210.827, 324.128 215.734, 324.745 219.819 C 325.151 222.505, 324.794 223.456, 322.874 224.800 C 317.672 228.439, 313 233.334, 313 235.142 C 313 236.937, 313.178 236.959, 315.968 235.517 C 317.600 234.672, 320.052 232.778, 321.416 231.307 C 323.616 228.935, 324.188 228.765, 326.468 229.804 C 330.119 231.467, 331.192 235.005, 329.890 241.079 C 329.296 243.846, 329.086 247.205, 329.421 248.543 C 329.757 249.881, 329.486 251.850, 328.819 252.919 C 327.756 254.621, 328.125 255.351, 331.803 258.814 C 335.508 262.304, 335.996 263.279, 335.965 267.134 C 335.945 269.535, 335.286 272.625, 334.500 274 C 333.714 275.375, 333.055 277.545, 333.035 278.823 C 332.982 282.321, 336.155 281.184, 338.157 276.987 C 344.381 263.943, 345.208 237.020, 339.843 222.089 C 336.992 214.153, 332.182 204.001, 331.271 203.996 C 330.847 203.994, 329.710 202.071, 328.745 199.723 C 326.960 195.382, 318.823 186, 316.843 186 C 316.168 186, 316.276 186.664, 317.128 187.750 M 85.694 195.639 C 84.761 196.573, 85.888 198, 87.559 198 C 88.352 198, 89 197.325, 89 196.500 C 89 194.994, 86.889 194.444, 85.694 195.639 M 296.758 197.634 C 293.054 199.616, 291.623 202.427, 293.005 205.009 C 294.390 207.597, 298.365 206.799, 302.290 203.146 C 307.629 198.177, 303.476 194.039, 296.758 197.634 M 66.669 198.253 C 65.189 199.335, 65.129 199.880, 66.228 202.245 C 66.927 203.752, 67.993 204.988, 68.595 204.992 C 70.365 205.005, 73 201.522, 73 199.171 C 73 196.665, 69.529 196.161, 66.669 198.253 M 153.209 205.500 C 153.331 210.138, 153.644 211, 155.208 211 C 156.228 211, 157.331 210.301, 157.659 209.446 C 158.308 207.755, 155.206 200, 153.880 200 C 153.431 200, 153.129 202.475, 153.209 205.500 M 77.040 202.452 C 75.301 204.547, 76.172 207.450, 78.645 207.804 C 80.647 208.091, 85 204.023, 85 201.865 C 85 200.412, 78.325 200.904, 77.040 202.452 M 102.583 203.866 C 102.152 204.563, 102.070 205.403, 102.400 205.733 C 103.295 206.628, 104.271 205.312, 103.787 203.862 C 103.449 202.846, 103.213 202.846, 102.583 203.866 M 71.543 209.931 C 71.226 210.443, 71.425 211.144, 71.984 211.490 C 72.543 211.835, 73 211.416, 73 210.559 C 73 208.802, 72.400 208.544, 71.543 209.931 M 88.285 210.110 C 86.193 210.714, 84.020 212.563, 82.069 215.399 C 80.419 217.797, 78.379 220.024, 77.535 220.348 C 75.339 221.191, 75.612 225.722, 77.934 226.965 C 82.855 229.598, 88.199 226.698, 88.399 221.285 C 88.465 219.495, 89.296 218.160, 90.814 217.404 C 93.538 216.048, 99 210.982, 99 209.813 C 99 208.746, 92.367 208.930, 88.285 210.110 M 230.861 216.926 C 228.639 218.738, 228.611 218.895, 230.376 219.581 C 231.408 219.982, 233.690 219.791, 235.447 219.155 C 237.204 218.520, 239.398 218, 240.321 218 C 241.244 218, 242 217.325, 242 216.500 C 242 214.188, 233.834 214.500, 230.861 216.926 M 34.952 224.089 C 33.995 225.879, 34.096 226.128, 35.656 225.828 C 36.657 225.635, 37.628 224.695, 37.812 223.739 C 38.278 221.318, 36.306 221.560, 34.952 224.089 M 155.529 238.614 C 153.689 240.454, 153.626 241.226, 155.186 242.786 C 156.101 243.701, 156.787 243.597, 158.186 242.331 C 159.184 241.429, 160 240.133, 160 239.452 C 160 237.472, 157.197 236.946, 155.529 238.614 M 331.773 244.592 C 332.105 246.330, 332.523 246.772, 333.042 245.933 C 333.889 244.561, 333.231 242, 332.032 242 C 331.617 242, 331.500 243.166, 331.773 244.592 M 284.182 252.500 C 282.548 253.875, 280.714 255, 280.106 255 C 278.353 255, 278.821 258.528, 280.814 260.331 C 283.021 262.329, 285 260.872, 285 257.248 C 285 255.534, 285.813 254.612, 288 253.850 C 289.650 253.275, 291 252.173, 291 251.402 C 291 249.190, 287.434 249.764, 284.182 252.500 M 135.446 255.087 C 134.299 256.943, 136.698 258.495, 138.458 257.035 C 139.306 256.331, 140 255.360, 140 254.878 C 140 253.619, 136.247 253.792, 135.446 255.087 M 295.835 255.673 C 293.506 256.290, 292.660 259.088, 294.304 260.733 C 295.317 261.745, 297.051 261.929, 300.841 261.427 C 304.998 260.875, 306 260.374, 306 258.846 C 306 255.986, 300.792 254.360, 295.835 255.673 M 224 264.981 C 224 268.499, 224.320 269.038, 226.750 269.615 C 230.325 270.465, 233 272.835, 233 275.155 C 233 276.369, 233.726 277, 235.122 277 C 236.935 277, 237.055 276.771, 235.946 275.435 C 235.232 274.574, 234.597 272.726, 234.536 271.327 C 234.467 269.752, 233.311 267.974, 231.496 266.652 C 229.886 265.479, 227.890 263.727, 227.062 262.759 C 224.760 260.071, 224 260.623, 224 264.981 M 287.500 271 C 287.840 271.550, 288.793 272, 289.618 272 C 290.443 272, 290.840 271.550, 290.500 271 C 290.160 270.450, 289.207 270, 288.382 270 C 287.557 270, 287.160 270.450, 287.500 271 M 36.562 276.511 C 34.712 280.409, 35.146 282, 38.059 282 C 39.401 282, 40.004 281.306, 40.014 279.750 C 40.021 278.512, 40.299 276.488, 40.630 275.250 C 41.623 271.546, 38.451 272.529, 36.562 276.511 M 188.020 288.524 C 188.716 289.362, 189.026 290.307, 188.710 290.623 C 187.891 291.442, 180.123 290.008, 179.446 288.913 C 179.136 288.411, 174.703 288, 169.596 288 C 158.891 288, 158.650 288.150, 154.595 297.357 C 151.523 304.333, 151.952 307.390, 156.382 310.091 C 160.119 312.370, 162 312.520, 162 310.539 C 162 309.199, 170.233 306, 173.682 306 C 175.485 306, 175.350 310.464, 173.500 312 C 171.961 313.277, 171.406 316.989, 172.750 317.014 C 173.162 317.021, 174.583 317.317, 175.906 317.671 C 177.594 318.123, 178.099 317.969, 177.597 317.158 C 177.115 316.377, 177.879 316, 179.941 316 C 183.401 316, 187 312.983, 187 310.082 C 187 306.818, 188.130 305, 190.159 305 C 191.421 305, 192.471 303.947, 193.150 302 C 193.725 300.350, 194.632 299, 195.166 299 C 195.700 299, 195.158 297.626, 193.962 295.946 C 191.905 293.058, 191.880 292.790, 193.492 291.009 C 195.789 288.471, 194.625 287, 190.319 287 C 187.239 287, 186.927 287.207, 188.020 288.524 M 240 305.500 C 238.960 306.753, 239.104 307, 240.878 307 C 242.098 307, 243 306.362, 243 305.500 C 243 304.675, 242.605 304, 242.122 304 C 241.640 304, 240.685 304.675, 240 305.500 M 266.813 312.062 C 266.166 314.001, 267.195 321, 268.126 321 C 269.703 321, 271.284 316.267, 270.608 313.574 C 269.966 311.017, 267.490 310.030, 266.813 312.062 M 162 315.393 C 162 316.709, 162.675 318.045, 163.500 318.362 C 164.626 318.794, 165 318.197, 165 315.969 C 165 313.997, 164.496 313, 163.500 313 C 162.585 313, 162 313.933, 162 315.393 M 196.984 317.920 C 192.207 318.856, 185.282 322.693, 180.750 326.914 C 175.683 331.632, 175.896 332.916, 181.750 332.947 C 185.866 332.968, 188.958 333.202, 193.639 333.844 C 194.265 333.930, 195.073 335.575, 195.434 337.500 C 195.795 339.425, 196.408 340.988, 196.795 340.972 C 197.183 340.957, 198.779 339.641, 200.341 338.048 C 202.247 336.105, 202.986 334.532, 202.587 333.273 C 202.259 332.240, 202.660 330.519, 203.479 329.448 C 204.938 327.538, 204.979 327.544, 205.600 329.750 C 206.346 332.402, 210.450 332.875, 211.393 330.418 C 212.486 327.571, 212.030 326.524, 208.929 324.760 C 207.023 323.675, 205.980 322.356, 206.161 321.260 C 206.823 317.236, 204.598 316.426, 196.984 317.920 M 164.250 322.360 C 163.012 322.973, 162 323.994, 162 324.629 C 162 326.052, 166.267 327.218, 168.433 326.387 C 169.309 326.051, 170.695 326.332, 171.513 327.011 C 173.583 328.729, 173.537 326.212, 171.443 323.223 C 169.768 320.831, 167.811 320.596, 164.250 322.360 M 160.025 339.940 C 157.966 344.911, 161.477 347.214, 163.982 342.534 C 165.052 340.534, 165.061 339.778, 164.028 338.534 C 162.202 336.334, 161.402 336.615, 160.025 339.940 M 103.527 347.425 C 106.818 350.354, 109.825 352.085, 112.418 352.542 C 115.654 353.112, 116.032 353.403, 114.586 354.212 C 113.624 354.750, 112.003 354.972, 110.983 354.706 C 109.030 354.195, 105 356.452, 105 358.057 C 105 358.576, 107.216 359, 109.924 359 C 112.632 359, 117.142 359.530, 119.947 360.177 C 130.525 362.619, 128.416 357.160, 116.182 350.436 C 110.644 347.392, 100.516 343.002, 99.027 343.001 C 98.767 343, 100.792 344.991, 103.527 347.425 M 128 345.034 C 126.702 345.903, 126.761 346.237, 128.441 347.519 C 130.369 348.990, 133 349.518, 133 348.434 C 133 347.311, 130.913 344, 130.215 344.015 C 129.822 344.024, 128.825 344.482, 128 345.034 M 148.641 347.794 C 148.408 348.182, 149.008 350.508, 149.974 352.963 C 151.563 357.001, 151.799 357.208, 152.455 355.140 C 153.394 352.182, 152.421 348.375, 150.541 347.654 C 149.729 347.342, 148.874 347.405, 148.641 347.794 M 288 348.500 C 288 349.530, 288.655 350.020, 289.750 349.810 C 291.858 349.404, 291.725 347.629, 289.553 347.177 C 288.647 346.988, 288 347.539, 288 348.500 M 465 348.750 C 465 349.529, 465.534 349.989, 466.188 349.771 C 468.001 349.166, 468.257 347.333, 466.528 347.333 C 465.688 347.333, 465 347.971, 465 348.750 M 169.306 351.645 C 168.581 353.535, 171.620 356.217, 173.981 355.770 C 174.816 355.612, 175.642 354.249, 175.816 352.741 C 176.101 350.275, 175.822 350, 173.035 350 C 171.083 350, 169.704 350.608, 169.306 351.645 M 196 355 C 196 355.550, 196.450 356, 197 356 C 197.550 356, 198 355.550, 198 355 C 198 354.450, 197.550 354, 197 354 C 196.450 354, 196 354.450, 196 355 M 507.567 357.506 C 506.528 359.434, 505.915 361.248, 506.204 361.537 C 506.770 362.103, 509.244 358.602, 510.293 355.750 C 511.433 352.652, 509.516 353.887, 507.567 357.506 M 274.500 358.309 C 273.400 358.964, 272.377 359.548, 272.226 359.607 C 272.076 359.666, 272.237 360.453, 272.583 361.357 C 273.370 363.407, 275.364 363.472, 277 361.500 C 277.685 360.675, 279.090 360, 280.122 360 C 282.734 360, 282.476 358.361, 279.750 357.630 C 276.923 356.873, 276.908 356.874, 274.500 358.309 M 403.500 357.947 C 394.392 360.201, 377.651 370.855, 366.290 381.627 C 363.974 383.823, 358.927 387.348, 355.073 389.460 C 343.852 395.611, 341.096 400, 348.454 400 C 359.675 400, 378.803 389.432, 393.500 375.112 C 399 369.753, 404.962 364.355, 406.750 363.116 C 410.278 360.671, 410.915 358.565, 408.418 357.607 C 407.548 357.273, 406.761 357.046, 406.668 357.102 C 406.576 357.159, 405.150 357.539, 403.500 357.947 M 170.933 364.581 C 169.742 366.015, 169.924 366.538, 172.338 368.615 C 173.864 369.927, 175.536 371, 176.056 371 C 177.864 371, 176.984 367.334, 174.650 365.141 C 172.489 363.111, 172.190 363.066, 170.933 364.581 M 289 365.778 C 289 366.833, 292.776 370, 294.034 370 C 294.591 370, 294.309 368.875, 293.408 367.500 C 291.877 365.163, 289 364.039, 289 365.778 M 272.919 368.278 C 271.759 370.824, 273.170 376, 275.023 376 C 276.414 376, 281 371.054, 281 369.554 C 281 365.725, 274.546 364.707, 272.919 368.278 M 303.759 373.750 C 298.219 379.389, 295.293 385.443, 297.073 387.587 C 298.421 389.212, 301.877 389.417, 305.203 388.069 C 306.466 387.557, 308.703 386.882, 310.173 386.569 C 311.643 386.257, 314.231 384.835, 315.923 383.411 C 321.005 379.135, 319.574 373.863, 312.316 370.125 C 309.099 368.468, 308.840 368.578, 303.759 373.750 M 102.162 373.779 C 100.210 374.430, 100.784 383.154, 103 386.500 C 105.523 390.310, 105.627 392.977, 103.228 392.349 C 100.982 391.762, 96.697 396.190, 97.164 398.615 C 97.814 401.991, 110.479 405.487, 113.399 403.097 C 114.004 402.601, 116.388 401.691, 118.696 401.074 C 123.139 399.886, 127.308 395.740, 126.747 393.067 C 126.312 390.995, 122.585 391.447, 118.990 394.007 C 117.451 395.103, 115.923 396, 115.596 396 C 114.012 396, 115.316 392.745, 118 390 C 119.650 388.312, 121 386.601, 121 386.198 C 121 384.642, 115.853 377.989, 113.731 376.803 C 110.793 375.160, 103.633 373.289, 102.162 373.779 M 477 376 C 477 376.550, 477.450 377, 478 377 C 478.550 377, 479 376.550, 479 376 C 479 375.450, 478.550 375, 478 375 C 477.450 375, 477 375.450, 477 376 M 76.150 380 C 75.575 381.650, 74.604 383, 73.993 383 C 73.382 383, 73.160 383.450, 73.500 384 C 74.633 385.833, 76.093 385.032, 77.150 382 C 77.725 380.350, 78.602 379, 79.098 379 C 79.594 379, 80 378.550, 80 378 C 80 375.726, 77.118 377.223, 76.150 380 M 87.988 380.513 C 86.166 382.452, 85.898 383.298, 86.813 384.213 C 87.729 385.129, 88 385.012, 88 383.700 C 88 382.667, 88.784 382, 90 382 C 91.333 382, 92 381.333, 92 380 C 92 377.331, 90.838 377.479, 87.988 380.513 M 272 383 C 272 383.550, 272.900 384, 274 384 C 275.100 384, 276 383.550, 276 383 C 276 382.450, 275.100 382, 274 382 C 272.900 382, 272 382.450, 272 383 M 444.405 388.845 C 444.854 389.573, 444.368 390, 443.089 390 C 441.530 390, 440.740 391.099, 439.675 394.750 C 438.914 397.363, 437.888 399.538, 437.395 399.584 C 435.580 399.754, 431.174 401.909, 430.538 402.938 C 430.133 403.595, 430.997 404, 432.801 404 C 434.747 404, 436.345 403.167, 437.597 401.500 C 438.630 400.125, 440.027 399, 440.703 399 C 442.588 399, 448.643 392.714, 447.216 392.239 C 446.547 392.016, 446 391.222, 446 390.476 C 446 389.729, 445.480 388.797, 444.845 388.405 C 444.130 387.962, 443.962 388.130, 444.405 388.845 M 166.650 392.758 C 166.392 393.174, 165.865 395.204, 165.477 397.269 C 164.655 401.651, 166.081 404, 169.563 404 C 172.820 404, 173.475 402.345, 171.675 398.665 C 170.824 396.924, 169.888 394.712, 169.595 393.750 C 169.047 391.948, 167.477 391.419, 166.650 392.758 M 156.557 400.223 C 154.338 403.390, 154.532 403.780, 159 405.118 C 161.200 405.777, 163 406.905, 163 407.623 C 163 409.251, 166.678 411.330, 167.424 410.123 C 167.723 409.638, 166.913 408.175, 165.623 406.871 C 164.333 405.567, 162.529 403.038, 161.613 401.250 C 159.651 397.419, 158.661 397.218, 156.557 400.223 M 431.500 406 C 431.160 406.550, 431.610 407, 432.500 407 C 433.390 407, 433.840 406.550, 433.500 406 C 433.160 405.450, 432.710 405, 432.500 405 C 432.290 405, 431.840 405.450, 431.500 406 M 167.785 421.367 C 165.696 423.042, 165.337 423.875, 166.112 425.250 C 167.101 427.003, 170.512 427.660, 171.303 426.250 C 171.534 425.837, 172.007 424.309, 172.355 422.854 C 173.200 419.308, 171.174 418.649, 167.785 421.367 M 347.741 433.592 C 347.415 433.918, 345.428 434.782, 343.324 435.513 C 340.620 436.453, 339.962 437.024, 341.078 437.462 C 341.945 437.803, 343.970 437.551, 345.578 436.903 C 347.185 436.254, 349.585 435.674, 350.912 435.612 C 354.502 435.445, 354.818 433, 351.250 433 C 349.646 433, 348.067 433.267, 347.741 433.592 M 331.226 440.004 C 329.425 441.102, 326.500 442.026, 324.726 442.058 C 322.952 442.089, 319.700 442.488, 317.500 442.943 C 314.713 443.519, 317.896 443.756, 328 443.725 C 335.975 443.700, 340.925 443.495, 339 443.269 C 335.499 442.857, 332.450 441.120, 334.800 440.875 C 335.460 440.806, 336.450 440.637, 337 440.500 C 337.550 440.363, 338.450 440.194, 339 440.125 C 339.550 440.056, 340 439.550, 340 439 C 340 437.296, 334.667 437.906, 331.226 440.004 M 140.250 443.716 C 141.762 443.945, 144.238 443.945, 145.750 443.716 C 147.262 443.487, 146.025 443.300, 143 443.300 C 139.975 443.300, 138.738 443.487, 140.250 443.716 M 366.750 443.662 C 367.438 443.940, 368.563 443.940, 369.250 443.662 C 369.938 443.385, 369.375 443.158, 368 443.158 C 366.625 443.158, 366.063 443.385, 366.750 443.662" stroke="none" fill="black" fill-rule="evenodd"/>
</svg>